<?xml version="1.0" encoding="UTF-8" standalone="no"?>
<!DOCTYPE svg PUBLIC "-//W3C//DTD SVG 1.1//EN" "http://www.w3.org/Graphics/SVG/1.1/DTD/svg11.dtd">
<svg xmlns="http://www.w3.org/2000/svg" version="1.1" viewBox="0.00 0.00 1024.00 1024.00">
<g stroke-width="2.00" fill="none" stroke-linecap="butt">
<path stroke="#808080" vector-effect="non-scaling-stroke" d="
  M 563.8572 205.9045
  A 37.38 37.01 2.0 0 0 527.7916 167.6125
  A 37.38 37.01 2.0 0 0 489.1428 203.2955
  A 37.38 37.01 2.0 0 0 525.2084 241.5875
  A 37.38 37.01 2.0 0 0 563.8572 205.9045"
/>
<path stroke="#808080" vector-effect="non-scaling-stroke" d="
  M 686.51 279.41
  C 653.48 259.69 620.92 239.82 587.91 220.11
  A 0.54 0.53 32.1 0 0 587.19 220.27
  Q 580.40 230.50 573.75 240.45
  Q 572.62 242.14 571.81 244.08
  A 0.61 0.61 0.0 0 0 572.03 244.82
  Q 575.67 247.33 579.72 249.78
  Q 606.59 266.04 632.28 281.58
  Q 666.13 302.04 697.65 320.96
  Q 707.40 326.81 716.40 332.30
  A 1.15 1.15 0.0 0 0 717.97 331.93
  Q 718.75 330.66 719.63 329.59
  Q 728.09 319.35 735.79 310.56
  A 0.86 0.86 0.0 0 0 735.60 309.26
  Q 711.41 294.26 686.51 279.41"
/>
<path stroke="#808080" vector-effect="non-scaling-stroke" d="
  M 308.79 350.22
  L 480.78 245.38
  A 1.08 1.07 56.5 0 0 481.09 243.83
  Q 472.88 232.73 465.20 220.48
  Q 464.91 220.00 464.43 220.29
  Q 455.66 225.53 446.53 231.09
  Q 373.72 275.50 300.88 319.85
  Q 295.30 323.25 289.34 326.73
  A 1.84 1.82 -49.9 0 1 287.78 326.87
  C 270.20 320.27 251.47 324.67 240.66 339.72
  Q 234.62 348.12 234.00 358.55
  Q 232.74 379.68 249.00 391.79
  Q 257.82 398.36 269.03 399.01
  Q 285.62 399.97 297.49 388.49
  C 307.91 378.42 310.68 365.51 308.31 351.26
  Q 308.20 350.58 308.79 350.22"
/>
<path stroke="#808080" vector-effect="non-scaling-stroke" d="
  M 548.92 315.06
  Q 584.02 335.69 617.17 356.06
  Q 625.49 361.17 634.27 366.40
  Q 650.26 375.94 671.61 389.14
  C 692.19 401.87 705.70 424.03 706.59 448.25
  C 707.14 463.06 706.50 481.52 706.54 498.24
  Q 706.61 535.56 706.82 567.92
  Q 706.88 578.12 705.97 584.05
  C 702.86 604.27 689.71 626.23 672.06 637.01
  Q 624.80 665.85 575.13 696.54
  A 0.68 0.67 -37.0 0 0 574.98 697.57
  L 594.86 719.15
  Q 595.24 719.57 595.75 719.30
  Q 598.22 717.98 600.57 716.55
  Q 643.77 690.23 686.91 663.44
  Q 711.44 648.21 725.02 622.45
  C 731.64 609.87 736.37 595.71 736.46 582.31
  Q 736.89 514.99 736.44 445.02
  Q 736.34 429.58 730.03 413.76
  Q 719.28 386.84 696.96 369.67
  Q 692.40 366.16 680.24 358.74
  Q 641.68 335.23 602.94 312.02
  C 589.34 303.87 574.33 294.21 560.38 286.52
  Q 544.62 277.84 525.87 278.01
  C 511.17 278.14 495.86 284.21 483.29 292.99
  Q 482.22 293.73 483.14 294.66
  L 502.68 314.40
  Q 503.21 314.93 503.88 314.57
  C 518.58 306.51 534.45 306.56 548.92 315.06"
/>
<path stroke="#808080" vector-effect="non-scaling-stroke" d="
  M 347.17 436.92
  C 350.59 421.29 358.83 407.11 370.78 396.81
  C 377.11 391.36 384.80 386.85 392.17 382.42
  Q 422.25 364.29 453.35 345.31
  Q 463.88 338.88 474.31 332.20
  A 0.61 0.61 0.0 0 0 474.42 331.26
  L 454.00 310.14
  Q 453.56 309.69 453.03 310.01
  Q 414.39 333.25 373.86 358.11
  Q 359.75 366.77 356.89 368.82
  Q 334.18 385.06 322.89 411.10
  Q 316.80 425.14 316.14 436.61
  Q 315.92 440.43 315.89 448.28
  Q 315.63 515.31 315.84 582.28
  C 315.88 595.82 320.43 609.80 326.78 621.76
  Q 339.53 645.80 360.30 659.89
  Q 366.53 664.11 374.04 668.64
  Q 424.90 699.29 475.42 730.50
  C 484.76 736.27 494.67 742.43 504.97 745.73
  Q 525.84 752.42 546.77 745.82
  C 553.52 743.69 560.54 739.94 566.62 736.08
  Q 567.43 735.57 566.76 734.88
  L 546.46 713.98
  A 0.95 0.94 55.5 0 0 545.41 713.78
  C 533.38 719.01 518.33 719.45 506.59 713.15
  Q 498.96 709.05 482.00 698.74
  Q 461.30 686.15 441.49 673.94
  Q 433.57 669.06 424.40 663.60
  Q 406.79 653.13 390.07 642.92
  Q 378.56 635.89 373.24 631.35
  Q 358.06 618.38 350.53 599.65
  Q 346.03 588.49 346.08 574.83
  Q 346.28 512.74 345.97 449.60
  Q 345.93 442.58 347.17 436.92"
/>
<path stroke="#808080" vector-effect="non-scaling-stroke" d="
  M 818.08 361.50
  A 37.61 37.61 0.0 0 0 780.47 323.89
  A 37.61 37.61 0.0 0 0 742.86 361.50
  A 37.61 37.61 0.0 0 0 780.47 399.11
  A 37.61 37.61 0.0 0 0 818.08 361.50"
/>
<path stroke="#808080" vector-effect="non-scaling-stroke" d="
  M 507.20 674.56
  Q 529.86 683.70 551.21 671.92
  C 561.38 666.32 573.58 658.22 583.69 652.17
  Q 613.91 634.09 644.82 615.00
  Q 655.31 608.52 658.96 604.58
  Q 667.61 595.25 670.41 584.02
  Q 671.90 578.08 671.86 569.46
  Q 671.63 516.90 671.89 461.69
  Q 671.95 449.02 670.47 443.49
  Q 665.68 425.65 650.23 415.85
  Q 618.85 395.94 568.73 366.06
  C 561.25 361.60 553.74 356.45 546.16 352.57
  Q 538.74 348.77 529.24 348.28
  Q 515.11 347.54 503.29 354.30
  Q 497.44 357.65 491.70 361.17
  Q 451.42 385.82 411.16 410.51
  Q 401.17 416.64 399.58 417.81
  C 390.52 424.55 383.76 434.32 381.63 445.41
  Q 380.67 450.43 380.68 463.67
  Q 380.71 511.39 380.61 559.57
  Q 380.58 573.65 381.47 579.68
  Q 383.43 592.89 394.02 604.25
  Q 397.81 608.32 407.75 614.50
  Q 423.36 624.20 444.86 637.17
  Q 473.30 654.35 504.33 673.38
  C 505.03 673.81 506.37 674.22 507.20 674.56"
/>
<path stroke="#808080" vector-effect="non-scaling-stroke" d="
  M 274.81 431.65
  C 265.11 426.78 255.42 421.33 245.89 416.99
  A 0.38 0.38 0.0 0 0 245.35 417.33
  C 245.22 422.02 245.57 426.94 245.54 431.56
  Q 245.07 516.18 245.52 594.50
  Q 245.58 605.54 245.75 616.28
  Q 245.76 617.10 246.49 616.72
  L 274.54 602.16
  Q 275.45 601.68 275.45 600.65
  L 275.38 432.56
  Q 275.38 431.93 274.81 431.65"
/>
<path stroke="#808080" vector-effect="non-scaling-stroke" d="
  M 776.06 601.40
  A 0.56 0.56 0.0 0 0 776.36 601.90
  L 805.14 616.77
  A 0.56 0.56 0.0 0 0 805.96 616.27
  L 805.96 417.61
  A 0.56 0.56 0.0 0 0 805.14 417.11
  L 776.39 431.84
  A 0.56 0.56 0.0 0 0 776.09 432.34
  L 776.06 601.40"
/>
<path stroke="#808080" vector-effect="non-scaling-stroke" d="
  M 293.38 704.40
  Q 363.15 746.77 429.26 786.51
  Q 435.82 790.46 441.09 793.85
  Q 448.98 798.93 464.05 807.53
  Q 464.50 807.79 464.74 807.33
  C 468.98 799.04 474.88 791.06 480.07 783.45
  A 0.60 0.60 0.0 0 0 479.89 782.60
  Q 419.79 745.74 359.77 709.71
  C 343.40 699.87 326.69 689.72 309.79 679.84
  Q 309.33 679.58 309.31 679.05
  C 309.21 676.51 309.52 673.94 309.31 671.45
  Q 308.01 655.37 295.98 644.45
  Q 285.05 634.52 268.48 635.24
  Q 255.46 635.80 245.69 644.57
  C 230.73 657.99 229.97 682.63 243.50 697.42
  Q 254.36 709.30 270.00 709.94
  Q 282.01 710.43 292.15 704.39
  Q 292.76 704.02 293.38 704.40"
/>
<path stroke="#808080" vector-effect="non-scaling-stroke" d="
  M 760.06 704.61
  C 776.95 713.82 796.70 711.43 809.23 696.37
  Q 818.92 684.74 817.95 670.05
  C 817.08 656.89 809.50 645.06 797.50 639.04
  Q 789.41 634.98 779.36 635.24
  Q 764.42 635.63 754.31 645.60
  C 747.09 652.72 742.90 662.19 742.94 672.36
  Q 742.95 675.54 743.02 678.60
  Q 743.04 679.75 742.06 680.35
  Q 681.39 716.70 630.46 747.99
  Q 608.21 761.65 584.27 776.11
  C 580.33 778.50 576.66 780.99 572.63 783.33
  A 0.54 0.54 0.0 0 0 572.45 784.09
  L 588.13 807.85
  Q 588.44 808.31 588.92 808.04
  Q 596.22 803.94 603.34 799.61
  Q 679.32 753.34 752.22 709.09
  Q 755.71 706.98 759.22 704.65
  Q 759.63 704.37 760.06 704.61"
/>
<path stroke="#808080" vector-effect="non-scaling-stroke" d="
  M 561.4487 840.5136
  A 37.47 37.32 21.6 0 0 540.3484 792.0207
  A 37.47 37.32 21.6 0 0 491.7713 812.9264
  A 37.47 37.32 21.6 0 0 512.8716 861.4193
  A 37.47 37.32 21.6 0 0 561.4487 840.5136"
/>
<path stroke="#808080" vector-effect="non-scaling-stroke" d="
  M 546.46 387.76
  C 536.72 381.70 528.72 376.64 517.03 382.01
  C 514.76 383.05 512.30 384.20 510.15 385.54
  Q 466.39 413.01 422.18 439.74
  C 415.73 443.64 411.46 446.95 411.48 455.20
  Q 411.60 514.06 411.57 571.66
  Q 411.56 575.75 412.22 580.95
  Q 412.29 581.45 412.70 581.74
  Q 415.08 583.41 418.97 585.77
  Q 465.06 613.65 511.03 641.81
  C 516.78 645.33 523.56 648.56 530.49 646.93
  Q 535.72 645.70 540.33 642.88
  Q 595.45 609.12 639.62 582.21
  Q 640.78 581.51 640.93 580.19
  Q 641.32 576.87 641.31 573.55
  Q 641.14 518.17 641.29 454.94
  C 641.32 446.31 636.73 442.90 629.74 438.70
  Q 586.77 412.87 546.46 387.76"
/>
</g>
<g fill="#ffffff">
<path d="
  M 0.00 0.00
  L 1024.00 0.00
  L 1024.00 1024.00
  L 0.00 1024.00
  L 0.00 0.00
  Z
  M 563.8572 205.9045
  A 37.38 37.01 2.0 0 0 527.7916 167.6125
  A 37.38 37.01 2.0 0 0 489.1428 203.2955
  A 37.38 37.01 2.0 0 0 525.2084 241.5875
  A 37.38 37.01 2.0 0 0 563.8572 205.9045
  Z
  M 686.51 279.41
  C 653.48 259.69 620.92 239.82 587.91 220.11
  A 0.54 0.53 32.1 0 0 587.19 220.27
  Q 580.40 230.50 573.75 240.45
  Q 572.62 242.14 571.81 244.08
  A 0.61 0.61 0.0 0 0 572.03 244.82
  Q 575.67 247.33 579.72 249.78
  Q 606.59 266.04 632.28 281.58
  Q 666.13 302.04 697.65 320.96
  Q 707.40 326.81 716.40 332.30
  A 1.15 1.15 0.0 0 0 717.97 331.93
  Q 718.75 330.66 719.63 329.59
  Q 728.09 319.35 735.79 310.56
  A 0.86 0.86 0.0 0 0 735.60 309.26
  Q 711.41 294.26 686.51 279.41
  Z
  M 308.79 350.22
  L 480.78 245.38
  A 1.08 1.07 56.5 0 0 481.09 243.83
  Q 472.88 232.73 465.20 220.48
  Q 464.91 220.00 464.43 220.29
  Q 455.66 225.53 446.53 231.09
  Q 373.72 275.50 300.88 319.85
  Q 295.30 323.25 289.34 326.73
  A 1.84 1.82 -49.9 0 1 287.78 326.87
  C 270.20 320.27 251.47 324.67 240.66 339.72
  Q 234.62 348.12 234.00 358.55
  Q 232.74 379.68 249.00 391.79
  Q 257.82 398.36 269.03 399.01
  Q 285.62 399.97 297.49 388.49
  C 307.91 378.42 310.68 365.51 308.31 351.26
  Q 308.20 350.58 308.79 350.22
  Z
  M 548.92 315.06
  Q 584.02 335.69 617.17 356.06
  Q 625.49 361.17 634.27 366.40
  Q 650.26 375.94 671.61 389.14
  C 692.19 401.87 705.70 424.03 706.59 448.25
  C 707.14 463.06 706.50 481.52 706.54 498.24
  Q 706.61 535.56 706.82 567.92
  Q 706.88 578.12 705.97 584.05
  C 702.86 604.27 689.71 626.23 672.06 637.01
  Q 624.80 665.85 575.13 696.54
  A 0.68 0.67 -37.0 0 0 574.98 697.57
  L 594.86 719.15
  Q 595.24 719.57 595.75 719.30
  Q 598.22 717.98 600.57 716.55
  Q 643.77 690.23 686.91 663.44
  Q 711.44 648.21 725.02 622.45
  C 731.64 609.87 736.37 595.71 736.46 582.31
  Q 736.89 514.99 736.44 445.02
  Q 736.34 429.58 730.03 413.76
  Q 719.28 386.84 696.96 369.67
  Q 692.40 366.16 680.24 358.74
  Q 641.68 335.23 602.94 312.02
  C 589.34 303.87 574.33 294.21 560.38 286.52
  Q 544.62 277.84 525.87 278.01
  C 511.17 278.14 495.86 284.21 483.29 292.99
  Q 482.22 293.73 483.14 294.66
  L 502.68 314.40
  Q 503.21 314.93 503.88 314.57
  C 518.58 306.51 534.45 306.56 548.92 315.06
  Z
  M 347.17 436.92
  C 350.59 421.29 358.83 407.11 370.78 396.81
  C 377.11 391.36 384.80 386.85 392.17 382.42
  Q 422.25 364.29 453.35 345.31
  Q 463.88 338.88 474.31 332.20
  A 0.61 0.61 0.0 0 0 474.42 331.26
  L 454.00 310.14
  Q 453.56 309.69 453.03 310.01
  Q 414.39 333.25 373.86 358.11
  Q 359.75 366.77 356.89 368.82
  Q 334.18 385.06 322.89 411.10
  Q 316.80 425.14 316.14 436.61
  Q 315.92 440.43 315.89 448.28
  Q 315.63 515.31 315.84 582.28
  C 315.88 595.82 320.43 609.80 326.78 621.76
  Q 339.53 645.80 360.30 659.89
  Q 366.53 664.11 374.04 668.64
  Q 424.90 699.29 475.42 730.50
  C 484.76 736.27 494.67 742.43 504.97 745.73
  Q 525.84 752.42 546.77 745.82
  C 553.52 743.69 560.54 739.94 566.62 736.08
  Q 567.43 735.57 566.76 734.88
  L 546.46 713.98
  A 0.95 0.94 55.5 0 0 545.41 713.78
  C 533.38 719.01 518.33 719.45 506.59 713.15
  Q 498.96 709.05 482.00 698.74
  Q 461.30 686.15 441.49 673.94
  Q 433.57 669.06 424.40 663.60
  Q 406.79 653.13 390.07 642.92
  Q 378.56 635.89 373.24 631.35
  Q 358.06 618.38 350.53 599.65
  Q 346.03 588.49 346.08 574.83
  Q 346.28 512.74 345.97 449.60
  Q 345.93 442.58 347.17 436.92
  Z
  M 818.08 361.50
  A 37.61 37.61 0.0 0 0 780.47 323.89
  A 37.61 37.61 0.0 0 0 742.86 361.50
  A 37.61 37.61 0.0 0 0 780.47 399.11
  A 37.61 37.61 0.0 0 0 818.08 361.50
  Z
  M 507.20 674.56
  Q 529.86 683.70 551.21 671.92
  C 561.38 666.32 573.58 658.22 583.69 652.17
  Q 613.91 634.09 644.82 615.00
  Q 655.31 608.52 658.96 604.58
  Q 667.61 595.25 670.41 584.02
  Q 671.90 578.08 671.86 569.46
  Q 671.63 516.90 671.89 461.69
  Q 671.95 449.02 670.47 443.49
  Q 665.68 425.65 650.23 415.85
  Q 618.85 395.94 568.73 366.06
  C 561.25 361.60 553.74 356.45 546.16 352.57
  Q 538.74 348.77 529.24 348.28
  Q 515.11 347.54 503.29 354.30
  Q 497.44 357.65 491.70 361.17
  Q 451.42 385.82 411.16 410.51
  Q 401.17 416.64 399.58 417.81
  C 390.52 424.55 383.76 434.32 381.63 445.41
  Q 380.67 450.43 380.68 463.67
  Q 380.71 511.39 380.61 559.57
  Q 380.58 573.65 381.47 579.68
  Q 383.43 592.89 394.02 604.25
  Q 397.81 608.32 407.75 614.50
  Q 423.36 624.20 444.86 637.17
  Q 473.30 654.35 504.33 673.38
  C 505.03 673.81 506.37 674.22 507.20 674.56
  Z
  M 274.81 431.65
  C 265.11 426.78 255.42 421.33 245.89 416.99
  A 0.38 0.38 0.0 0 0 245.35 417.33
  C 245.22 422.02 245.57 426.94 245.54 431.56
  Q 245.07 516.18 245.52 594.50
  Q 245.58 605.54 245.75 616.28
  Q 245.76 617.10 246.49 616.72
  L 274.54 602.16
  Q 275.45 601.68 275.45 600.65
  L 275.38 432.56
  Q 275.38 431.93 274.81 431.65
  Z
  M 776.06 601.40
  A 0.56 0.56 0.0 0 0 776.36 601.90
  L 805.14 616.77
  A 0.56 0.56 0.0 0 0 805.96 616.27
  L 805.96 417.61
  A 0.56 0.56 0.0 0 0 805.14 417.11
  L 776.39 431.84
  A 0.56 0.56 0.0 0 0 776.09 432.34
  L 776.06 601.40
  Z
  M 293.38 704.40
  Q 363.15 746.77 429.26 786.51
  Q 435.82 790.46 441.09 793.85
  Q 448.98 798.93 464.05 807.53
  Q 464.50 807.79 464.74 807.33
  C 468.98 799.04 474.88 791.06 480.07 783.45
  A 0.60 0.60 0.0 0 0 479.89 782.60
  Q 419.79 745.74 359.77 709.71
  C 343.40 699.87 326.69 689.72 309.79 679.84
  Q 309.33 679.58 309.31 679.05
  C 309.21 676.51 309.52 673.94 309.31 671.45
  Q 308.01 655.37 295.98 644.45
  Q 285.05 634.52 268.48 635.24
  Q 255.46 635.80 245.69 644.57
  C 230.73 657.99 229.97 682.63 243.50 697.42
  Q 254.36 709.30 270.00 709.94
  Q 282.01 710.43 292.15 704.39
  Q 292.76 704.02 293.38 704.40
  Z
  M 760.06 704.61
  C 776.95 713.82 796.70 711.43 809.23 696.37
  Q 818.92 684.74 817.95 670.05
  C 817.08 656.89 809.50 645.06 797.50 639.04
  Q 789.41 634.98 779.36 635.24
  Q 764.42 635.63 754.31 645.60
  C 747.09 652.72 742.90 662.19 742.94 672.36
  Q 742.95 675.54 743.02 678.60
  Q 743.04 679.75 742.06 680.35
  Q 681.39 716.70 630.46 747.99
  Q 608.21 761.65 584.27 776.11
  C 580.33 778.50 576.66 780.99 572.63 783.33
  A 0.54 0.54 0.0 0 0 572.45 784.09
  L 588.13 807.85
  Q 588.44 808.31 588.92 808.04
  Q 596.22 803.94 603.34 799.61
  Q 679.32 753.34 752.22 709.09
  Q 755.71 706.98 759.22 704.65
  Q 759.63 704.37 760.06 704.61
  Z
  M 561.4487 840.5136
  A 37.47 37.32 21.6 0 0 540.3484 792.0207
  A 37.47 37.32 21.6 0 0 491.7713 812.9264
  A 37.47 37.32 21.6 0 0 512.8716 861.4193
  A 37.47 37.32 21.6 0 0 561.4487 840.5136
  Z"
/>
<path d="
  M 546.46 387.76
  Q 586.77 412.87 629.74 438.70
  C 636.73 442.90 641.32 446.31 641.29 454.94
  Q 641.14 518.17 641.31 573.55
  Q 641.32 576.87 640.93 580.19
  Q 640.78 581.51 639.62 582.21
  Q 595.45 609.12 540.33 642.88
  Q 535.72 645.70 530.49 646.93
  C 523.56 648.56 516.78 645.33 511.03 641.81
  Q 465.06 613.65 418.97 585.77
  Q 415.08 583.41 412.70 581.74
  Q 412.29 581.45 412.22 580.95
  Q 411.56 575.75 411.57 571.66
  Q 411.60 514.06 411.48 455.20
  C 411.46 446.95 415.73 443.64 422.18 439.74
  Q 466.39 413.01 510.15 385.54
  C 512.30 384.20 514.76 383.05 517.03 382.01
  C 528.72 376.64 536.72 381.70 546.46 387.76
  Z"
/>
</g>
<g fill="#000000">
<ellipse cx="0.00" cy="0.00" transform="translate(526.50,204.60) rotate(2.0)" rx="37.38" ry="37.01"/>
<path d="
  M 686.51 279.41
  Q 711.41 294.26 735.60 309.26
  A 0.86 0.86 0.0 0 1 735.79 310.56
  Q 728.09 319.35 719.63 329.59
  Q 718.75 330.66 717.97 331.93
  A 1.15 1.15 0.0 0 1 716.40 332.30
  Q 707.40 326.81 697.65 320.96
  Q 666.13 302.04 632.28 281.58
  Q 606.59 266.04 579.72 249.78
  Q 575.67 247.33 572.03 244.82
  A 0.61 0.61 0.0 0 1 571.81 244.08
  Q 572.62 242.14 573.75 240.45
  Q 580.40 230.50 587.19 220.27
  A 0.54 0.53 32.1 0 1 587.91 220.11
  C 620.92 239.82 653.48 259.69 686.51 279.41
  Z"
/>
<path d="
  M 308.31 351.26
  C 310.68 365.51 307.91 378.42 297.49 388.49
  Q 285.62 399.97 269.03 399.01
  Q 257.82 398.36 249.00 391.79
  Q 232.74 379.68 234.00 358.55
  Q 234.62 348.12 240.66 339.72
  C 251.47 324.67 270.20 320.27 287.78 326.87
  A 1.84 1.82 -49.9 0 0 289.34 326.73
  Q 295.30 323.25 300.88 319.85
  Q 373.72 275.50 446.53 231.09
  Q 455.66 225.53 464.43 220.29
  Q 464.91 220.00 465.20 220.48
  Q 472.88 232.73 481.09 243.83
  A 1.08 1.07 56.5 0 1 480.78 245.38
  L 308.79 350.22
  Q 308.20 350.58 308.31 351.26
  Z"
/>
<path d="
  M 548.92 315.06
  C 534.45 306.56 518.58 306.51 503.88 314.57
  Q 503.21 314.93 502.68 314.40
  L 483.14 294.66
  Q 482.22 293.73 483.29 292.99
  C 495.86 284.21 511.17 278.14 525.87 278.01
  Q 544.62 277.84 560.38 286.52
  C 574.33 294.21 589.34 303.87 602.94 312.02
  Q 641.68 335.23 680.24 358.74
  Q 692.40 366.16 696.96 369.67
  Q 719.28 386.84 730.03 413.76
  Q 736.34 429.58 736.44 445.02
  Q 736.89 514.99 736.46 582.31
  C 736.37 595.71 731.64 609.87 725.02 622.45
  Q 711.44 648.21 686.91 663.44
  Q 643.77 690.23 600.57 716.55
  Q 598.22 717.98 595.75 719.30
  Q 595.24 719.57 594.86 719.15
  L 574.98 697.57
  A 0.68 0.67 -37.0 0 1 575.13 696.54
  Q 624.80 665.85 672.06 637.01
  C 689.71 626.23 702.86 604.27 705.97 584.05
  Q 706.88 578.12 706.82 567.92
  Q 706.61 535.56 706.54 498.24
  C 706.50 481.52 707.14 463.06 706.59 448.25
  C 705.70 424.03 692.19 401.87 671.61 389.14
  Q 650.26 375.94 634.27 366.40
  Q 625.49 361.17 617.17 356.06
  Q 584.02 335.69 548.92 315.06
  Z"
/>
<path d="
  M 370.78 396.81
  C 358.83 407.11 350.59 421.29 347.17 436.92
  Q 345.93 442.58 345.97 449.60
  Q 346.28 512.74 346.08 574.83
  Q 346.03 588.49 350.53 599.65
  Q 358.06 618.38 373.24 631.35
  Q 378.56 635.89 390.07 642.92
  Q 406.79 653.13 424.40 663.60
  Q 433.57 669.06 441.49 673.94
  Q 461.30 686.15 482.00 698.74
  Q 498.96 709.05 506.59 713.15
  C 518.33 719.45 533.38 719.01 545.41 713.78
  A 0.95 0.94 55.5 0 1 546.46 713.98
  L 566.76 734.88
  Q 567.43 735.57 566.62 736.08
  C 560.54 739.94 553.52 743.69 546.77 745.82
  Q 525.84 752.42 504.97 745.73
  C 494.67 742.43 484.76 736.27 475.42 730.50
  Q 424.90 699.29 374.04 668.64
  Q 366.53 664.11 360.30 659.89
  Q 339.53 645.80 326.78 621.76
  C 320.43 609.80 315.88 595.82 315.84 582.28
  Q 315.63 515.31 315.89 448.28
  Q 315.92 440.43 316.14 436.61
  Q 316.80 425.14 322.89 411.10
  Q 334.18 385.06 356.89 368.82
  Q 359.75 366.77 373.86 358.11
  Q 414.39 333.25 453.03 310.01
  Q 453.56 309.69 454.00 310.14
  L 474.42 331.26
  A 0.61 0.61 0.0 0 1 474.31 332.20
  Q 463.88 338.88 453.35 345.31
  Q 422.25 364.29 392.17 382.42
  C 384.80 386.85 377.11 391.36 370.78 396.81
  Z"
/>
<circle cx="780.47" cy="361.50" r="37.61"/>
<path d="
  M 507.20 674.56
  C 506.37 674.22 505.03 673.81 504.33 673.38
  Q 473.30 654.35 444.86 637.17
  Q 423.36 624.20 407.75 614.50
  Q 397.81 608.32 394.02 604.25
  Q 383.43 592.89 381.47 579.68
  Q 380.58 573.65 380.61 559.57
  Q 380.71 511.39 380.68 463.67
  Q 380.67 450.43 381.63 445.41
  C 383.76 434.32 390.52 424.55 399.58 417.81
  Q 401.17 416.64 411.16 410.51
  Q 451.42 385.82 491.70 361.17
  Q 497.44 357.65 503.29 354.30
  Q 515.11 347.54 529.24 348.28
  Q 538.74 348.77 546.16 352.57
  C 553.74 356.45 561.25 361.60 568.73 366.06
  Q 618.85 395.94 650.23 415.85
  Q 665.68 425.65 670.47 443.49
  Q 671.95 449.02 671.89 461.69
  Q 671.63 516.90 671.86 569.46
  Q 671.90 578.08 670.41 584.02
  Q 667.61 595.25 658.96 604.58
  Q 655.31 608.52 644.82 615.00
  Q 613.91 634.09 583.69 652.17
  C 573.58 658.22 561.38 666.32 551.21 671.92
  Q 529.86 683.70 507.20 674.56
  Z
  M 546.46 387.76
  C 536.72 381.70 528.72 376.64 517.03 382.01
  C 514.76 383.05 512.30 384.20 510.15 385.54
  Q 466.39 413.01 422.18 439.74
  C 415.73 443.64 411.46 446.95 411.48 455.20
  Q 411.60 514.06 411.57 571.66
  Q 411.56 575.75 412.22 580.95
  Q 412.29 581.45 412.70 581.74
  Q 415.08 583.41 418.97 585.77
  Q 465.06 613.65 511.03 641.81
  C 516.78 645.33 523.56 648.56 530.49 646.93
  Q 535.72 645.70 540.33 642.88
  Q 595.45 609.12 639.62 582.21
  Q 640.78 581.51 640.93 580.19
  Q 641.32 576.87 641.31 573.55
  Q 641.14 518.17 641.29 454.94
  C 641.32 446.31 636.73 442.90 629.74 438.70
  Q 586.77 412.87 546.46 387.76
  Z"
/>
<path d="
  M 245.89 416.99
  C 255.42 421.33 265.11 426.78 274.81 431.65
  Q 275.38 431.93 275.38 432.56
  L 275.45 600.65
  Q 275.45 601.68 274.54 602.16
  L 246.49 616.72
  Q 245.76 617.10 245.75 616.28
  Q 245.58 605.54 245.52 594.50
  Q 245.07 516.18 245.54 431.56
  C 245.57 426.94 245.22 422.02 245.35 417.33
  A 0.38 0.38 0.0 0 1 245.89 416.99
  Z"
/>
<path d="
  M 776.06 601.40
  L 776.09 432.34
  A 0.56 0.56 0.0 0 1 776.39 431.84
  L 805.14 417.11
  A 0.56 0.56 0.0 0 1 805.96 417.61
  L 805.96 616.27
  A 0.56 0.56 0.0 0 1 805.14 616.77
  L 776.36 601.90
  A 0.56 0.56 0.0 0 1 776.06 601.40
  Z"
/>
<path d="
  M 292.15 704.39
  Q 282.01 710.43 270.00 709.94
  Q 254.36 709.30 243.50 697.42
  C 229.97 682.63 230.73 657.99 245.69 644.57
  Q 255.46 635.80 268.48 635.24
  Q 285.05 634.52 295.98 644.45
  Q 308.01 655.37 309.31 671.45
  C 309.52 673.94 309.21 676.51 309.31 679.05
  Q 309.33 679.58 309.79 679.84
  C 326.69 689.72 343.40 699.87 359.77 709.71
  Q 419.79 745.74 479.89 782.60
  A 0.60 0.60 0.0 0 1 480.07 783.45
  C 474.88 791.06 468.98 799.04 464.74 807.33
  Q 464.50 807.79 464.05 807.53
  Q 448.98 798.93 441.09 793.85
  Q 435.82 790.46 429.26 786.51
  Q 363.15 746.77 293.38 704.40
  Q 292.76 704.02 292.15 704.39
  Z"
/>
<path d="
  M 759.22 704.65
  Q 755.71 706.98 752.22 709.09
  Q 679.32 753.34 603.34 799.61
  Q 596.22 803.94 588.92 808.04
  Q 588.44 808.31 588.13 807.85
  L 572.45 784.09
  A 0.54 0.54 0.0 0 1 572.63 783.33
  C 576.66 780.99 580.33 778.50 584.27 776.11
  Q 608.21 761.65 630.46 747.99
  Q 681.39 716.70 742.06 680.35
  Q 743.04 679.75 743.02 678.60
  Q 742.95 675.54 742.94 672.36
  C 742.90 662.19 747.09 652.72 754.31 645.60
  Q 764.42 635.63 779.36 635.24
  Q 789.41 634.98 797.50 639.04
  C 809.50 645.06 817.08 656.89 817.95 670.05
  Q 818.92 684.74 809.23 696.37
  C 796.70 711.43 776.95 713.82 760.06 704.61
  Q 759.63 704.37 759.22 704.65
  Z"
/>
<ellipse cx="0.00" cy="0.00" transform="translate(526.61,826.72) rotate(21.6)" rx="37.47" ry="37.32"/>
</g>
</svg>
