<svg version="1.1" id="Layer_1" xmlns="http://www.w3.org/2000/svg" xmlns:xlink="http://www.w3.org/1999/xlink" x="0px" y="0px"
	 width="100%" viewBox="0 0 1024 1024" enable-background="new 0 0 1024 1024" xml:space="preserve">
<path fill="#000000" opacity="1.000000" stroke="none" 
	d="
M392.891388,424.929016 
	C399.844849,417.195984 408.837463,412.934021 417.170258,407.794342 
	C444.535919,390.915253 472.054016,374.283234 499.429474,357.419922 
	C518.318054,345.784546 536.736694,345.803101 555.724548,357.687042 
	C586.788025,377.128754 618.240784,395.948212 649.510376,415.061035 
	C665.826599,425.033936 673.559326,439.504181 673.411072,458.746185 
	C673.117126,496.905853 673.359375,535.069397 673.297607,573.231262 
	C673.269836,590.382507 666.091492,604.009949 651.561951,613.007019 
	C618.850403,633.262756 586.024780,653.345032 552.937805,672.979126 
	C535.774109,683.164124 518.039062,682.749023 500.864349,672.322449 
	C469.397339,653.219055 438.068695,633.886963 406.544861,614.878235 
	C389.452576,604.571716 381.047791,589.460938 380.960876,569.817688 
	C380.797241,532.823486 380.967133,495.827637 381.048462,458.832611 
	C381.075958,446.320801 384.007782,434.761200 392.891388,424.929016 
M641.697754,462.535614 
	C642.839905,452.949768 640.160645,445.733459 631.181091,440.396576 
	C600.545715,422.189026 570.257690,403.397278 539.817078,384.861420 
	C531.033447,379.512848 522.308594,380.468231 513.871887,385.648102 
	C482.790192,404.731415 451.759186,423.897339 420.694061,443.007721 
	C415.577576,446.155243 413.152130,450.474426 413.175354,456.646881 
	C413.325684,496.636505 413.340759,536.626953 413.230988,576.616699 
	C413.219910,580.653992 414.660065,582.943726 418.044586,584.988892 
	C449.264832,603.854065 480.536621,622.641602 511.474426,641.962463 
	C522.759827,649.010315 532.739319,648.805176 543.948364,641.779114 
	C574.287659,622.761841 604.961487,604.276001 635.613098,585.762085 
	C639.938599,583.149414 641.836487,580.220337 641.806824,574.996826 
	C641.595642,537.840332 641.695312,500.682098 641.697754,462.535614 
z"/>
<path fill="#000000" opacity="1.000000" stroke="none" 
	d="
M738.265015,553.000000 
	C737.911804,565.647705 739.121887,577.838135 737.451843,589.946594 
	C734.520386,611.201050 725.298340,629.489746 711.309265,645.607910 
	C699.702393,658.981262 684.387146,667.259949 669.715332,676.411621 
	C647.951843,689.986755 626.055298,703.348694 604.215271,716.801208 
	C603.931519,716.976013 603.648682,717.152405 603.363220,717.324341 
	C596.262878,721.601135 596.234314,721.626282 590.872559,715.606140 
	C585.801453,709.912354 580.174377,704.695862 575.622009,698.322388 
	C577.366943,695.461853 580.208679,694.252258 582.672119,692.737427 
	C612.049805,674.673828 641.628479,656.932312 670.847168,638.616150 
	C692.713257,624.909119 705.946594,604.711609 706.626038,578.985413 
	C707.778442,535.354309 707.350159,491.663086 706.705078,448.010132 
	C706.346619,423.755280 694.373413,404.696472 674.174377,392.064514 
	C633.501709,366.628815 592.196045,342.204987 551.139038,317.384247 
	C536.986267,308.828217 522.386780,307.572693 507.383759,315.041626 
	C504.921234,316.267548 503.263153,316.003815 501.325134,313.910522 
	C496.234283,308.411774 491.008392,303.022156 485.581329,297.856995 
	C482.679352,295.095093 483.548462,293.674683 486.426422,291.818756 
	C514.461548,273.739441 542.368408,274.565918 570.487000,291.785797 
	C610.125122,316.060211 650.030701,339.899628 689.579224,364.318115 
	C715.978455,380.617859 731.621094,404.584991 737.075562,435.077637 
	C738.036194,440.447937 738.133118,446.021942 738.151611,451.503479 
	C738.265076,485.168732 738.241455,518.834473 738.265015,553.000000 
z"/>
<path fill="#000000" opacity="1.000000" stroke="none" 
	d="
M437.015869,670.912720 
	C458.824707,684.143677 480.411072,697.045166 501.781372,710.295105 
	C514.979309,718.478088 528.694397,720.288818 543.351746,715.316528 
	C544.940369,714.777649 546.648071,713.951416 548.088989,715.249573 
	C555.346863,721.788452 562.063660,728.843872 568.826294,736.573059 
	C559.796814,743.201477 550.507935,747.422668 540.250305,749.284241 
	C523.268616,752.366028 506.993835,750.054260 492.072510,741.227295 
	C470.860992,728.679260 449.862793,715.769470 428.812714,702.949829 
	C407.196472,689.785217 385.412384,676.879456 364.092499,663.249268 
	C337.856262,646.475830 322.427673,622.166138 316.907715,591.632996 
	C315.938751,586.273254 316.022369,580.681396 316.015320,575.196228 
	C315.964081,535.210999 316.501770,495.218140 315.896454,455.242188 
	C315.275879,414.260956 332.708282,383.972595 367.399017,362.981995 
	C395.042938,346.255219 422.678619,329.514008 450.211945,312.606476 
	C453.613831,310.517426 455.792908,310.785278 458.350250,313.639893 
	C464.085663,320.041931 470.831726,325.535858 475.662109,332.436493 
	C475.253967,334.399139 473.835754,334.771393 472.740479,335.443420 
	C441.942932,354.340637 410.892975,372.840759 380.415009,392.239624 
	C359.179504,405.755737 348.063385,425.868927 347.456787,451.141296 
	C347.077332,466.949829 347.868225,482.782745 347.846710,498.604340 
	C347.813446,523.090088 347.609283,547.576294 347.340485,572.060852 
	C347.026611,600.653992 359.593109,622.496277 382.973938,637.945862 
	C400.466675,649.504639 418.763397,659.846680 437.015869,670.912720 
z"/>
<path fill="#000000" opacity="1.000000" stroke="none" 
	d="
M366.695984,280.640564 
	C398.287933,261.405579 429.615387,242.433090 460.785461,223.205460 
	C464.887939,220.674805 466.966461,221.043091 469.393951,225.116867 
	C472.797791,230.829224 476.492828,236.419266 480.589752,241.649261 
	C483.273499,245.075256 482.338104,246.629868 479.119568,248.583572 
	C456.922882,262.057251 434.792603,275.640289 412.639801,289.186279 
	C380.119263,309.071991 347.634216,329.016388 315.025421,348.756348 
	C311.397156,350.952759 309.906250,353.355621 310.277344,357.532288 
	C311.432831,370.537476 307.949127,381.969177 297.928131,390.831512 
	C285.686218,401.658081 271.523346,403.497681 256.978363,397.276917 
	C242.650848,391.149139 235.304214,379.636261 234.538925,363.623413 
	C233.428207,340.382416 254.006683,318.546936 284.079956,326.032074 
	C288.136047,327.041687 291.169189,326.703613 294.738434,324.500244 
	C318.537659,309.808350 342.483948,295.354675 366.695984,280.640564 
z"/>
<path fill="#000000" opacity="1.000000" stroke="none" 
	d="
M812.041138,695.954956 
	C799.992065,711.168396 781.872620,715.672546 764.400269,707.784851 
	C761.560303,706.502808 759.497314,706.869446 757.024902,708.377075 
	C723.471497,728.836548 689.879822,749.233398 656.296570,769.643982 
	C636.234070,781.837158 616.177795,794.040833 596.094055,806.198853 
	C593.992249,807.471130 591.935364,808.932190 588.971497,809.455139 
	C583.602356,801.416199 577.832581,793.534485 572.788940,784.519470 
	C576.698364,781.943542 580.323486,779.382935 584.108887,777.086609 
	C635.510010,745.905945 686.915588,714.732422 738.387207,683.668518 
	C742.230225,681.349243 743.815002,678.722107 743.765930,674.088013 
	C743.547302,653.461731 758.191406,637.323059 778.099915,635.726807 
	C798.383240,634.100525 815.728699,647.235657 819.023315,667.305420 
	C820.697144,677.501892 818.639832,687.197571 812.041138,695.954956 
z"/>
<path fill="#000000" opacity="1.000000" stroke="none" 
	d="
M277.659271,711.272949 
	C256.631470,711.589905 242.430618,703.029236 236.787048,686.186340 
	C231.853104,671.461243 234.115555,657.589600 245.187286,646.405640 
	C256.472076,635.006592 270.645721,632.785828 285.407135,638.034302 
	C299.972839,643.213196 308.560944,654.309570 310.173676,669.645630 
	C310.992584,677.432617 313.569275,681.984802 320.637787,686.187683 
	C373.318604,717.511292 425.625671,749.463318 478.062531,781.197571 
	C480.441711,782.637451 482.113708,783.939331 480.006134,787.028992 
	C475.138184,794.165222 470.493958,801.454102 465.496613,809.081421 
	C457.037476,805.156921 449.351440,799.940125 441.439941,795.150696 
	C408.387115,775.141174 375.386047,755.046143 342.345764,735.015930 
	C327.818970,726.209167 313.191040,717.567749 298.730194,708.654663 
	C295.416168,706.612000 292.615845,705.960938 289.097076,708.066650 
	C285.787506,710.047302 281.845276,710.398254 277.659271,711.272949 
z"/>
<path fill="#000000" opacity="1.000000" stroke="none" 
	d="
M245.741821,588.000000 
	C245.741470,531.106689 245.741470,474.713409 245.741470,418.641998 
	C248.319962,417.494293 249.717850,418.666718 251.146469,419.396271 
	C258.410889,423.105804 265.570465,427.029907 272.921387,430.556580 
	C275.944458,432.006897 277.073944,434.041840 277.065887,437.179779 
	C277.047485,444.341339 277.156372,451.503174 277.158020,458.664886 
	C277.168549,504.467926 277.104492,550.271179 277.251068,596.073730 
	C277.266815,600.992004 275.998962,604.032654 271.217316,606.126892 
	C264.374146,609.123962 257.905548,612.973022 251.254486,616.414795 
	C249.971985,617.078552 248.746323,618.094788 245.742188,617.320129 
	C245.742188,607.950623 245.742188,598.225281 245.741821,588.000000 
z"/>
<path fill="#000000" opacity="1.000000" stroke="none" 
	d="
M807.349121,507.000092 
	C807.349426,544.219055 807.349426,580.937927 807.349426,619.004395 
	C796.850464,613.501831 787.607361,608.709595 778.422546,603.807983 
	C776.038391,602.535583 776.681946,600.038086 776.678833,597.947144 
	C776.645813,575.788330 776.655273,553.629578 776.656738,531.470764 
	C776.658813,500.815002 776.810791,470.157928 776.529297,439.504791 
	C776.480042,434.132111 778.266602,431.357666 783.006775,429.270233 
	C789.397339,426.456024 795.489380,422.963837 801.708740,419.761017 
	C803.168640,419.009216 804.541809,417.969727 807.348755,418.555908 
	C807.348755,447.750397 807.348755,477.125244 807.349121,507.000092 
z"/>
<path fill="#000000" opacity="1.000000" stroke="none" 
	d="
M719.128906,298.821869 
	C725.353455,302.691162 731.263000,306.378113 737.405701,310.210571 
	C735.333801,314.832703 731.985596,317.868042 729.217407,321.298370 
	C726.708496,324.407471 723.681396,327.152496 721.518738,330.472351 
	C719.112488,334.166229 716.874451,333.648071 713.680359,331.704224 
	C699.455017,323.046997 685.104004,314.596710 670.844482,305.995209 
	C640.900208,287.932495 610.909851,269.944000 581.098022,251.664719 
	C570.555725,245.200638 570.377563,247.239456 577.747437,235.930893 
	C580.293457,232.024216 583.165833,228.308716 585.444824,224.255997 
	C587.397095,220.784256 589.320435,220.557297 592.583069,222.556885 
	C606.924438,231.346329 621.387756,239.936584 635.797119,248.615265 
	C663.472900,265.284241 691.142029,281.964142 719.128906,298.821869 
z"/>
<path fill="#000000" opacity="1.000000" stroke="none" 
	d="
M753.495300,336.527344 
	C764.421265,324.866180 777.726746,322.029633 792.161194,326.048553 
	C807.099731,330.207825 815.930359,340.850586 819.031921,356.008301 
	C823.450073,377.600677 805.662903,399.687561 783.906738,400.416229 
	C767.114990,400.978638 754.693115,394.286316 747.511841,379.215057 
	C740.301331,364.082428 742.807678,349.778900 753.495300,336.527344 
z"/>
<path fill="#000000" opacity="1.000000" stroke="none" 
	d="
M541.665039,863.021240 
	C524.603210,868.140320 509.778290,865.337830 498.393707,851.591797 
	C488.943970,840.182129 487.111786,827.066895 492.589386,813.188049 
	C497.760529,800.085876 507.774872,792.952576 521.394531,790.627686 
	C543.585632,786.839417 559.808594,801.953491 564.050293,816.937378 
	C569.514282,836.239258 560.932861,854.381836 541.665039,863.021240 
z"/>
<path fill="#000000" opacity="1.000000" stroke="none" 
	d="
M557.056091,228.992081 
	C543.620789,245.342026 519.896912,247.991089 504.098633,235.157974 
	C487.796295,221.915421 484.867981,198.634216 497.473999,182.489365 
	C509.860657,166.625427 534.867004,163.480103 550.865723,175.773666 
	C567.360352,188.448242 570.184265,211.742798 557.056091,228.992081 
z"/>
</svg>